<svg xmlns="http://www.w3.org/2000/svg" viewBox="0 0 1194.6 185.1"><g id="Layer_2" data-name="Layer 2"><g id="Layer_1-2" data-name="Layer 1"><path d="M0,173.4l42-22.2V33.9L0,11.7V4.8H129.9V12l-42,21.9V158.4h86.4l48.6-47.1L231,114l-18,66.6-142.5-.3v.3H0Z"/><path d="M403.2,0c81,0,145.5,34.2,145.5,90.6,0,53.7-58.2,94.5-146.4,94.5-81,0-145.8-34.5-145.8-91.2C256.5,39.9,315,0,403.2,0ZM309.9,91.8c0,42.3,34.8,71.7,92.7,71.7,54.3,0,92.4-26.4,92.4-70.2,0-42-34.8-71.7-92.4-71.7C348,21.6,309.9,48,309.9,91.8Z"/><path d="M793.2,120.3h-.6L751.5,98.1V90.9H876.9v6.9L839.1,120v45c-26.7,13.8-75.3,20.1-110.1,20.1-77.7,0-141.6-30.9-141.6-93C587.4,34.5,642,0,727.8,0c35.4,0,61.8,6.3,84.3,14.1l14.1-12,9.6-.3,2.7,71.4-8.1.3L798.6,33.9c-15-8.1-42.9-12.3-72.6-12.3-53.4,0-87.9,19.5-87.9,69.9,0,46.2,30.3,72,94.8,72,23.4,0,49.5-3.9,60.3-8.1Z"/><path d="M1049.1,0c81,0,145.5,34.2,145.5,90.6,0,53.7-58.2,94.5-146.4,94.5-81,0-145.81-34.5-145.81-91.2C902.39,39.9,960.9,0,1049.1,0ZM955.79,91.8c0,42.3,34.81,71.7,92.71,71.7,54.3,0,92.4-26.4,92.4-70.2,0-42-34.8-71.7-92.4-71.7C993.9,21.6,955.79,48,955.79,91.8Z"/></g></g></svg>